<svg xmlns="http://www.w3.org/2000/svg" xmlns:xlink="http://www.w3.org/1999/xlink" xml:space="preserve" version="1.1" style="shape-rendering:geometricPrecision;text-rendering:geometricPrecision;image-rendering:optimizeQuality;" viewBox="0 0 333 416.25" x="0px" y="0px" fill-rule="evenodd" clip-rule="evenodd"><defs><style type="text/css">
   
    .fil0 {fill:black;fill-rule:nonzero}
   
  </style></defs><g><path class="fil0" d="M167 33c73,0 133,60 133,134 0,73 -60,133 -133,133 -74,0 -134,-60 -134,-133 0,-74 60,-134 134,-134zm-14 61c0,-13 20,-13 20,0l0 71 46 13c12,4 7,23 -6,20l-52 -16c-5,-1 -8,-5 -8,-10l0 -78zm14 -41c-63,0 -114,51 -114,114 0,62 51,113 114,113 62,0 113,-51 113,-113 0,-63 -51,-114 -113,-114z"/></g><text x="0" y="348" fill="#000000" font-size="5px" font-weight="bold" font-family="'Helvetica Neue', Helvetica, Arial-Unicode, Arial, Sans-serif">Created by Fadhil Icon</text><text x="0" y="353" fill="#000000" font-size="5px" font-weight="bold" font-family="'Helvetica Neue', Helvetica, Arial-Unicode, Arial, Sans-serif">from the Noun Project</text></svg>