<?xml version="1.0" encoding="UTF-8" standalone="no"?>
<!DOCTYPE svg PUBLIC "-//W3C//DTD SVG 1.1//EN" "http://www.w3.org/Graphics/SVG/1.1/DTD/svg11.dtd">
<svg width="100%" height="100%" viewBox="0 0 523 133" version="1.1" xmlns="http://www.w3.org/2000/svg" xmlns:xlink="http://www.w3.org/1999/xlink" xml:space="preserve" xmlns:serif="http://www.serif.com/" style="fill-rule:evenodd;clip-rule:evenodd;stroke-linecap:round;stroke-linejoin:round;">
    <g transform="matrix(1,0,0,1,-278.576,-473.832)">
        <g>
            <g id="cloud" transform="matrix(4.16667,0,0,4.16667,328.576,556.168)">
                <g transform="matrix(1,0,0,1,-12,-12)">
                    <clipPath id="_clip1">
                        <rect x="0" y="0" width="24" height="24"/>
                    </clipPath>
                    <g clip-path="url(#_clip1)">
                        <path d="M18,10L16.74,10C15.831,6.479 12.63,4 8.994,4C4.605,4 0.994,7.611 0.994,12C0.994,16.389 4.605,20 8.994,20C8.996,20 8.998,20 9,20L18,20C20.743,20 23,17.743 23,15C23,12.257 20.743,10 18,10Z" style="fill:none;fill-rule:nonzero;stroke:white;stroke-width:2px;"/>
                    </g>
                </g>
            </g>
            <g id="clock" transform="matrix(4.16667,0,0,4.16667,363.985,523.832)">
                <g transform="matrix(1,0,0,1,-12,-12)">
                    <path d="M2.052,12C2.052,6.481 6.481,2 12,2C17.519,2 22,6.481 22,12C22,16.592 18.899,20.465 14.678,21.637" style="fill:none;stroke:white;stroke-width:2px;"/>
                    <path d="M12,6L12,12L16,14" style="fill:none;fill-rule:nonzero;stroke:white;stroke-width:2px;"/>
                </g>
            </g>
            <g transform="matrix(1,0,0,1,-41.0574,-136.205)">
                <g transform="matrix(50,0,0,50,454.592,727.944)">
                    <path d="M0.604,-0.696L0.52,-0.251L0.441,-0.696L0.32,-0.696L0.319,-0.688L0.241,-0.251L0.158,-0.696L0.009,-0.696L0.15,0L0.299,0L0.381,-0.401L0.462,0L0.611,0L0.752,-0.696L0.604,-0.696Z" style="fill:white;fill-rule:nonzero;"/>
                </g>
                <g transform="matrix(50,0,0,50,490.142,727.944)">
                    <path d="M0.246,-0.414C0.104,-0.414 0.024,-0.307 0.024,-0.2C0.024,-0.096 0.097,0.014 0.247,0.014C0.419,0.014 0.459,-0.138 0.459,-0.138L0.324,-0.138C0.324,-0.138 0.309,-0.096 0.25,-0.096C0.196,-0.096 0.159,-0.139 0.159,-0.18L0.47,-0.18C0.47,-0.313 0.385,-0.414 0.246,-0.414ZM0.246,-0.311C0.313,-0.311 0.329,-0.246 0.329,-0.246L0.163,-0.246C0.163,-0.246 0.178,-0.311 0.246,-0.311Z" style="fill:white;fill-rule:nonzero;"/>
                </g>
                <g transform="matrix(50,0,0,50,514.792,727.944)">
                    <path d="M0.336,-0.399L0.336,-0.333C0.336,-0.333 0.3,-0.414 0.208,-0.414C0.089,-0.414 0.025,-0.302 0.025,-0.2C0.025,-0.115 0.072,0.014 0.207,0.014C0.304,0.014 0.336,-0.076 0.336,-0.076L0.336,-0.001L0.465,-0.001L0.465,-0.399L0.336,-0.399ZM0.25,-0.115C0.199,-0.115 0.164,-0.153 0.164,-0.2C0.164,-0.247 0.201,-0.285 0.25,-0.285C0.302,-0.285 0.332,-0.238 0.332,-0.2C0.332,-0.159 0.303,-0.115 0.25,-0.115Z" style="fill:white;fill-rule:nonzero;"/>
                </g>
                <g transform="matrix(50,0,0,50,540.142,727.944)">
                    <path d="M0.302,-0.398L0.218,-0.398L0.218,-0.532L0.082,-0.498L0.082,-0.398L0.015,-0.398L0.015,-0.297L0.079,-0.297L0.079,0L0.218,0L0.218,-0.297L0.302,-0.297L0.302,-0.398Z" style="fill:white;fill-rule:nonzero;"/>
                </g>
                <g transform="matrix(50,0,0,50,555.892,727.944)">
                    <path d="M0.298,-0.413C0.211,-0.413 0.181,-0.322 0.181,-0.322L0.181,-0.696L0.171,-0.696L0.171,-0.696L0.042,-0.696L0.042,0L0.181,0L0.181,-0.207C0.181,-0.257 0.199,-0.288 0.242,-0.288C0.285,-0.288 0.303,-0.257 0.303,-0.207L0.303,0L0.442,0L0.442,-0.248C0.442,-0.351 0.39,-0.413 0.298,-0.413Z" style="fill:white;fill-rule:nonzero;"/>
                </g>
                <g transform="matrix(50,0,0,50,579.942,727.944)">
                    <path d="M0.246,-0.414C0.104,-0.414 0.024,-0.307 0.024,-0.2C0.024,-0.096 0.097,0.014 0.247,0.014C0.419,0.014 0.459,-0.138 0.459,-0.138L0.324,-0.138C0.324,-0.138 0.309,-0.096 0.25,-0.096C0.196,-0.096 0.159,-0.139 0.159,-0.18L0.47,-0.18C0.47,-0.313 0.385,-0.414 0.246,-0.414ZM0.246,-0.311C0.313,-0.311 0.329,-0.246 0.329,-0.246L0.163,-0.246C0.163,-0.246 0.178,-0.311 0.246,-0.311Z" style="fill:white;fill-rule:nonzero;"/>
                </g>
                <g transform="matrix(50,0,0,50,604.592,727.944)">
                    <path d="M0.32,-0.398L0.281,-0.398C0.218,-0.398 0.188,-0.366 0.181,-0.35L0.157,-0.398L0.042,-0.398L0.042,0L0.181,0L0.181,-0.226C0.181,-0.313 0.234,-0.312 0.306,-0.22L0.32,-0.22L0.32,-0.398Z" style="fill:white;fill-rule:nonzero;"/>
                </g>
                <g transform="matrix(50,0,0,50,636.092,727.944)">
                    <path d="M0.306,-0.135C0.23,-0.135 0.174,-0.2 0.174,-0.342L0.174,-0.355C0.174,-0.498 0.23,-0.563 0.306,-0.563C0.416,-0.563 0.423,-0.454 0.423,-0.454L0.575,-0.454C0.575,-0.519 0.515,-0.711 0.306,-0.711C0.099,-0.711 0.026,-0.514 0.026,-0.353L0.026,-0.344C0.026,-0.184 0.099,0.014 0.306,0.014C0.515,0.014 0.575,-0.178 0.575,-0.243L0.423,-0.243C0.423,-0.243 0.416,-0.135 0.306,-0.135Z" style="fill:white;fill-rule:nonzero;"/>
                </g>
                <g transform="matrix(50,0,0,50,665.942,727.944)">
                    <rect x="0.042" y="-0.696" width="0.139" height="0.696" style="fill:white;fill-rule:nonzero;"/>
                </g>
                <g transform="matrix(50,0,0,50,677.142,727.944)">
                    <path d="M0.247,-0.414C0.121,-0.414 0.024,-0.324 0.024,-0.201C0.024,-0.076 0.121,0.014 0.246,0.014C0.374,0.014 0.471,-0.076 0.471,-0.2C0.471,-0.324 0.374,-0.414 0.247,-0.414ZM0.248,-0.11C0.197,-0.11 0.163,-0.151 0.163,-0.201C0.163,-0.249 0.197,-0.289 0.248,-0.289C0.297,-0.289 0.332,-0.249 0.332,-0.2C0.332,-0.151 0.297,-0.11 0.248,-0.11Z" style="fill:white;fill-rule:nonzero;"/>
                </g>
                <g transform="matrix(50,0,0,50,701.892,727.944)">
                    <path d="M0.252,-0.285C0.32,-0.285 0.353,-0.238 0.353,-0.238L0.353,-0.386C0.353,-0.386 0.299,-0.414 0.241,-0.414C0.116,-0.414 0.024,-0.321 0.024,-0.2C0.024,-0.084 0.105,0.014 0.241,0.014C0.303,0.014 0.353,-0.013 0.353,-0.013L0.353,-0.165C0.353,-0.165 0.323,-0.115 0.252,-0.115C0.213,-0.115 0.163,-0.143 0.163,-0.2C0.163,-0.261 0.215,-0.285 0.252,-0.285Z" style="fill:white;fill-rule:nonzero;"/>
                </g>
                <g transform="matrix(50,0,0,50,721.492,727.944)">
                    <path d="M0.302,-0.237L0.436,-0.398L0.282,-0.398L0.181,-0.27L0.181,-0.696L0.042,-0.696L0.042,0L0.181,0L0.181,-0.192L0.305,0L0.467,0L0.302,-0.237Z" style="fill:white;fill-rule:nonzero;"/>
                </g>
                <g transform="matrix(50,0,0,50,759.542,727.944)">
                    <path d="M0.374,-0.696L0.374,-0.277L0.181,-0.696L0.05,-0.696L0.05,0L0.199,0L0.199,-0.413L0.391,0L0.522,0L0.522,-0.696L0.374,-0.696Z" style="fill:white;fill-rule:nonzero;"/>
                </g>
                <g transform="matrix(50,0,0,50,788.192,727.944)">
                    <path d="M0.247,-0.414C0.121,-0.414 0.024,-0.324 0.024,-0.201C0.024,-0.076 0.121,0.014 0.246,0.014C0.374,0.014 0.471,-0.076 0.471,-0.2C0.471,-0.324 0.374,-0.414 0.247,-0.414ZM0.248,-0.11C0.197,-0.11 0.163,-0.151 0.163,-0.201C0.163,-0.249 0.197,-0.289 0.248,-0.289C0.297,-0.289 0.332,-0.249 0.332,-0.2C0.332,-0.151 0.297,-0.11 0.248,-0.11Z" style="fill:white;fill-rule:nonzero;"/>
                </g>
                <g transform="matrix(50,0,0,50,812.192,727.944)">
                    <path d="M0.467,-0.399L0.41,-0.156L0.353,-0.399L0.262,-0.399L0.205,-0.156L0.148,-0.399L0.009,-0.399L0.134,0L0.258,0L0.307,-0.187L0.357,0L0.48,0L0.606,-0.399L0.467,-0.399Z" style="fill:white;fill-rule:nonzero;"/>
                </g>
            </g>
        </g>
    </g>
</svg>
